<svg width="205" height="90" viewBox="0 0 205 90" fill="none" xmlns="http://www.w3.org/2000/svg">
<rect width="205" height="90" fill="black"/>
<g clip-path="url(#clip0_0_1)">
<rect width="1440" height="1643" transform="translate(-1201 -35)" fill="#F6BCFF" fill-opacity="0.77"/>
<path d="M-1201 -43H-460.5H239V221H-460.5H-1201V-43Z" fill="black"/>
<path d="M9.78009 0.730185C13.5 -0.912731 204.78 0.730185 204.78 0.730185V58.7302C204.78 58.7302 -52.7199 127.73 9.78009 58.7302C72.2801 -10.2698 6.06017 2.3731 9.78009 0.730185Z" fill="#F10000"/>
<path d="M72.5327 38L76.1548 16.1818H80.7678L77.7848 34.1967H87.1385L86.4993 38H72.5327ZM110.523 27.3892C110.125 29.7187 109.354 31.6967 108.211 33.3232C107.075 34.9496 105.686 36.1854 104.045 37.0305C102.412 37.8757 100.651 38.2983 98.7614 38.2983C96.7798 38.2983 95.0717 37.8473 93.6371 36.9453C92.2095 36.0433 91.1761 34.7401 90.5369 33.0355C89.8977 31.3239 89.777 29.2607 90.1747 26.8459C90.5582 24.5092 91.3217 22.5277 92.4652 20.9013C93.6087 19.2678 95.0043 18.0249 96.652 17.1726C98.2997 16.3132 100.072 15.8835 101.968 15.8835C103.935 15.8835 105.633 16.3381 107.06 17.2472C108.495 18.1562 109.528 19.4702 110.161 21.1889C110.8 22.9006 110.92 24.9673 110.523 27.3892ZM105.931 26.8459C106.18 25.3473 106.169 24.0902 105.899 23.0746C105.636 22.0518 105.153 21.2777 104.45 20.7521C103.747 20.2266 102.859 19.9638 101.787 19.9638C100.622 19.9638 99.5533 20.255 98.5803 20.8374C97.6143 21.4197 96.7976 22.2649 96.13 23.3729C95.4695 24.4737 95.0114 25.8125 94.7557 27.3892C94.5 28.8949 94.5071 30.152 94.777 31.1605C95.054 32.169 95.5476 32.9325 96.2578 33.451C96.9751 33.9624 97.8665 34.218 98.9318 34.218C100.089 34.218 101.148 33.9339 102.107 33.3658C103.072 32.7905 103.886 31.956 104.546 30.8622C105.207 29.7614 105.668 28.4226 105.931 26.8459ZM129.089 23.2344C129.032 22.7159 128.911 22.2578 128.727 21.8601C128.549 21.4553 128.304 21.1143 127.992 20.8374C127.679 20.5533 127.299 20.3366 126.852 20.1875C126.404 20.0384 125.886 19.9638 125.296 19.9638C124.181 19.9638 123.137 20.2408 122.164 20.7947C121.198 21.3487 120.374 22.1548 119.693 23.2131C119.011 24.2642 118.546 25.5497 118.297 27.0696C118.041 28.5895 118.041 29.8821 118.297 30.9474C118.56 32.0128 119.053 32.826 119.778 33.3871C120.509 33.9411 121.45 34.218 122.601 34.218C123.645 34.218 124.583 34.0334 125.414 33.6641C126.244 33.2876 126.923 32.7585 127.448 32.0767C127.981 31.3949 128.322 30.5888 128.471 29.6584L129.387 29.7969H123.773L124.348 26.3239H133.478L133.009 29.0724C132.704 30.9901 132.033 32.6378 130.996 34.0156C129.959 35.3935 128.666 36.4517 127.118 37.1903C125.577 37.929 123.887 38.2983 122.047 38.2983C120.002 38.2983 118.279 37.8473 116.88 36.9453C115.488 36.0362 114.497 34.7472 113.908 33.0781C113.325 31.402 113.222 29.4134 113.599 27.1122C113.89 25.3437 114.409 23.767 115.154 22.3821C115.907 20.9901 116.827 19.8111 117.914 18.8452C119 17.8793 120.204 17.1442 121.525 16.6399C122.853 16.1357 124.235 15.8835 125.669 15.8835C126.905 15.8835 128.024 16.0646 129.025 16.4268C130.034 16.782 130.896 17.2862 131.614 17.9396C132.338 18.593 132.885 19.3707 133.254 20.2727C133.631 21.1676 133.805 22.1548 133.776 23.2344H129.089ZM156.812 27.3892C156.414 29.7187 155.643 31.6967 154.5 33.3232C153.364 34.9496 151.975 36.1854 150.335 37.0305C148.701 37.8757 146.94 38.2983 145.05 38.2983C143.069 38.2983 141.361 37.8473 139.926 36.9453C138.499 36.0433 137.465 34.7401 136.826 33.0355C136.187 31.3239 136.066 29.2607 136.464 26.8459C136.847 24.5092 137.611 22.5277 138.754 20.9013C139.898 19.2678 141.293 18.0249 142.941 17.1726C144.589 16.3132 146.361 15.8835 148.257 15.8835C150.224 15.8835 151.922 16.3381 153.349 17.2472C154.784 18.1562 155.817 19.4702 156.45 21.1889C157.089 22.9006 157.21 24.9673 156.812 27.3892ZM152.22 26.8459C152.469 25.3473 152.458 24.0902 152.188 23.0746C151.925 22.0518 151.442 21.2777 150.739 20.7521C150.036 20.2266 149.148 19.9638 148.076 19.9638C146.911 19.9638 145.842 20.255 144.869 20.8374C143.903 21.4197 143.087 22.2649 142.419 23.3729C141.759 24.4737 141.3 25.8125 141.045 27.3892C140.789 28.8949 140.796 30.152 141.066 31.1605C141.343 32.169 141.837 32.9325 142.547 33.451C143.264 33.9624 144.156 34.218 145.221 34.218C146.379 34.218 147.437 33.9339 148.396 33.3658C149.362 32.7905 150.175 31.956 150.835 30.8622C151.496 29.7614 151.957 28.4226 152.22 26.8459ZM175.559 16.1818H180.172L177.828 30.3509C177.566 31.9418 176.958 33.3338 176.007 34.527C175.055 35.7202 173.844 36.6506 172.374 37.3182C170.904 37.9787 169.263 38.3089 167.452 38.3089C165.641 38.3089 164.114 37.9787 162.871 37.3182C161.628 36.6506 160.73 35.7202 160.176 34.527C159.622 33.3338 159.476 31.9418 159.739 30.3509L162.083 16.1818H166.695L164.405 29.9567C164.277 30.7876 164.341 31.5263 164.597 32.1726C164.86 32.8189 165.293 33.3267 165.896 33.696C166.5 34.0653 167.246 34.25 168.134 34.25C169.029 34.25 169.838 34.0653 170.563 33.696C171.294 33.3267 171.894 32.8189 172.363 32.1726C172.839 31.5263 173.141 30.7876 173.269 29.9567L175.559 16.1818ZM182.497 19.9851L183.136 16.1818H201.055L200.416 19.9851H193.737L190.754 38H186.194L189.177 19.9851H182.497Z" fill="black"/>
</g>
<defs>
<clipPath id="clip0_0_1">
<rect width="1440" height="1643" fill="white" transform="translate(-1201 -35)"/>
</clipPath>
</defs>
</svg>
